<svg width="16" height="16" viewBox="0 0 16 16" fill="none" xmlns="http://www.w3.org/2000/svg">
<g clip-path="url(#clip0_46_476)">
<path d="M8 0.666664C7.46957 0.666664 6.96086 0.877378 6.58579 1.25245C6.21071 1.62752 6 2.13623 6 2.66666V8C6 8.53043 6.21071 9.03914 6.58579 9.41421C6.96086 9.78928 7.46957 10 8 10C8.53043 10 9.03914 9.78928 9.41421 9.41421C9.78929 9.03914 10 8.53043 10 8V2.66666C10 2.13623 9.78929 1.62752 9.41421 1.25245C9.03914 0.877378 8.53043 0.666664 8 0.666664Z" stroke="black" stroke-width="1.5" stroke-linecap="round" stroke-linejoin="round"/>
<path d="M12.6666 6.66666V8C12.6666 9.23767 12.1749 10.4247 11.2998 11.2998C10.4246 12.175 9.2376 12.6667 7.99992 12.6667C6.76224 12.6667 5.57526 12.175 4.70009 11.2998C3.82492 10.4247 3.33325 9.23767 3.33325 8V6.66666" stroke="black" stroke-width="1.5" stroke-linecap="round" stroke-linejoin="round"/>
<path d="M8 12.6667V15.3333" stroke="black" stroke-width="2" stroke-linecap="round" stroke-linejoin="round"/>
<path d="M5.33325 15.3333H10.6666" stroke="black" stroke-width="1.5" stroke-linecap="round" stroke-linejoin="round"/>
</g>
<defs>
<clipPath id="clip0_46_476">
<rect width="16" height="16" fill="white"/>
</clipPath>
</defs>
</svg>
