<svg width="22" height="22" viewBox="0 0 22 22" fill="none" xmlns="http://www.w3.org/2000/svg">
<path d="M12.8332 1.83333H5.49984C5.01361 1.83333 4.54729 2.02648 4.20347 2.3703C3.85966 2.71412 3.6665 3.18043 3.6665 3.66666V18.3333C3.6665 18.8196 3.85966 19.2859 4.20347 19.6297C4.54729 19.9735 5.01361 20.1667 5.49984 20.1667H16.4998C16.9861 20.1667 17.4524 19.9735 17.7962 19.6297C18.14 19.2859 18.3332 18.8196 18.3332 18.3333V7.33333L12.8332 1.83333Z" stroke="#404040" stroke-width="1.5" stroke-linecap="round" stroke-linejoin="round"/>
<path d="M12.8335 1.83333V7.33333H18.3335" stroke="#404040" stroke-width="1.5" stroke-linecap="round" stroke-linejoin="round"/>
<path d="M14.6668 11.9167H7.3335" stroke="#404040" stroke-width="1.5" stroke-linecap="round" stroke-linejoin="round"/>
<path d="M14.6668 15.5833H7.3335" stroke="#404040" stroke-width="1.5" stroke-linecap="round" stroke-linejoin="round"/>
<path d="M9.16683 8.25H8.25016H7.3335" stroke="#404040" stroke-width="1.5" stroke-linecap="round" stroke-linejoin="round"/>
</svg>
